<svg width="28" height="28" viewBox="0 0 28 28" xmlns="http://www.w3.org/2000/svg">
    <g fill="none" fill-rule="evenodd">
        <path d="M0 0h28v28H0z"/>
        <g transform="translate(4.375 4.901)" fill="#111">
            <rect y="6.474" width="4.375" height="11.375" rx=".875"/>
            <path d="M7.875 5.599h10.213a1.75 1.75 0 0 1 1.73 2.013l-1.333 8.75a1.75 1.75 0 0 1-1.73 1.487h-8.88a1.75 1.75 0 0 1-1.75-1.75v-8.75c0-.967.784-1.75 1.75-1.75z"/>
            <path d="M11.793 5.844c.82-1.502 1.01-2.782.573-3.84C11.93.946 11.114.298 9.923.058 8.8-.138 8.238.163 8.238.963c0 1.2.818 2.598-.453 3.947L6.567 6.202l5.226-.273v-.085z"/>
        </g>
    </g>
</svg>
