<svg width="28" height="28" viewBox="0 0 28 28" xmlns="http://www.w3.org/2000/svg">
    <g fill="none" fill-rule="evenodd">
        <path d="M0 0h28v28H0z"/>
        <path d="M14 23.625c4.35 0 7.875-3.549 7.875-7.926 0-1.194-.643-2.678-1.928-4.454a.875.875 0 0 0-1.35-.082l-1.927 2.078c.618-1.768.618-3.404 0-4.906-.617-1.5-2.678-3.96-3.742-3.96a.469.469 0 0 0-.43.295c-.213.53-.225 1.653-.802 2.69-.802 1.443-1.59 1.963-1.878 2.157-2.078 1.399-3.693 3.592-3.693 6.182 0 4.377 3.526 7.926 7.875 7.926z" fill="#000"/>
    </g>
</svg>
